<svg width="11" height="11" viewBox="0 0 11 11" fill="none" xmlns="http://www.w3.org/2000/svg">
<path d="M5.54847 10.6221C8.32788 10.6221 10.6152 8.33476 10.6152 5.55535C10.6152 2.77593 8.32788 0.483192 5.54847 0.483192C2.76906 0.483192 0.481724 2.77593 0.481724 5.55535C0.481724 8.33476 2.76906 10.6221 5.54847 10.6221ZM5.54847 10.0759C3.04484 10.0759 1.02787 8.05357 1.02787 5.55535C1.02787 3.05171 3.04484 1.02934 5.54847 1.02934C8.0521 1.02934 10.0745 3.05171 10.0745 5.55535C10.0745 8.05357 8.0521 10.0759 5.54847 10.0759ZM3.49365 5.83112H5.27269V7.61557C5.27269 7.77238 5.39165 7.89135 5.54306 7.89135C5.69988 7.89135 5.81884 7.77779 5.81884 7.61557V5.83112H7.60329C7.76551 5.83112 7.87906 5.71216 7.87906 5.56616C7.87906 5.40394 7.76551 5.28497 7.60329 5.28497H5.81884V3.50053C5.81884 3.33831 5.69988 3.22475 5.54306 3.22475C5.39165 3.22475 5.27269 3.34371 5.27269 3.50053V5.28497H3.49365C3.32602 5.28497 3.21247 5.40394 3.21247 5.56616C3.21247 5.71216 3.33143 5.83112 3.49365 5.83112Z" fill="#A2CBE8"/>
</svg>
