<svg width="12" height="11" viewBox="0 0 12 11" fill="none" xmlns="http://www.w3.org/2000/svg">
<path d="M5.93909 10.6221C8.7185 10.6221 11.0058 8.33476 11.0058 5.55535C11.0058 2.77593 8.7185 0.483192 5.93909 0.483192C3.15968 0.483192 0.872349 2.77593 0.872349 5.55535C0.872349 8.33476 3.15968 10.6221 5.93909 10.6221ZM5.93909 10.0759C3.43546 10.0759 1.4185 8.05357 1.4185 5.55535C1.4185 3.05171 3.43546 1.02934 5.93909 1.02934C8.44273 1.02934 10.4651 3.05171 10.4651 5.55535C10.4651 8.05357 8.44273 10.0759 5.93909 10.0759ZM3.71665 5.84194H8.16154C8.33458 5.84194 8.45895 5.73379 8.45895 5.57697C8.45895 5.40394 8.33999 5.29579 8.16154 5.29579H3.71665C3.5382 5.29579 3.41383 5.40394 3.41383 5.57697C3.41383 5.73379 3.54361 5.84194 3.71665 5.84194Z" fill="#A2CBE8"/>
</svg>
